<svg width="100px" height="100px" viewBox="0 0 100 100" xmlns="http://www.w3.org/2000/svg" fill="#fff ">
    <path stroke="null" fill-rule="evenodd" clip-rule="evenodd" d="m99.67872,50c0,27.48905 -22.26343,49.77375 -49.72624,49.77375c-27.46306,0 -49.72624,-22.2847 -49.72624,-49.77375c0,-27.4893 22.26318,-49.77375 49.72624,-49.77375c27.46281,0 49.72624,22.28446 49.72624,49.77375zm-24.86312,19.9095l0,-9.95475l-4.97262,0l0,9.95475l-39.78099,0l0,-9.95475l-4.97262,0l0,9.95475c0,2.749 2.22634,4.97738 4.97262,4.97738l39.78099,0c2.74638,0 4.97262,-2.22837 4.97262,-4.97738zm-14.18938,-26.64688l-8.18743,8.19525l0,-26.34475l-4.97262,0l0,26.34475l-8.18713,-8.19525l-3.51619,3.52l14.18963,14.20294l14.18988,-14.20294l-3.51614,-3.52z" id="svg_1"/>
</svg>